<?xml version="1.0" encoding="UTF-8"?>
<svg version="1.1" xmlns="http://www.w3.org/2000/svg" width="639" height="390">
<path d="M0 0 C1.44495487 -0.00599475 2.88990656 -0.01280245 4.33485413 -0.02035522 C8.23811376 -0.03793011 12.14128555 -0.0427071 16.04458094 -0.0439868 C18.49089995 -0.04541425 20.93719705 -0.04969512 23.38351059 -0.05498123 C31.94009554 -0.07345617 40.49661842 -0.08165538 49.05322266 -0.08007812 C56.99268225 -0.0788787 64.93186914 -0.09994841 72.87125981 -0.13156545 C79.71664253 -0.15784113 86.56193682 -0.16844066 93.40736949 -0.16716731 C97.48285016 -0.16666081 101.5580884 -0.17216868 105.63351822 -0.19352341 C109.47342389 -0.21309642 113.31286071 -0.21290248 117.15278435 -0.19849014 C118.54942332 -0.19642402 119.94609313 -0.20096907 121.34267998 -0.21321106 C136.34735882 -0.33604894 151.96133623 2.45913614 163.41357422 12.91552734 C164.11482422 13.69927734 164.81607422 14.48302734 165.53857422 15.29052734 C166.40482422 15.95052734 167.27107422 16.61052734 168.16357422 17.29052734 C170.73901846 19.4593225 171.85668032 21.3923012 173.53857422 24.29052734 C174.09416016 25.10908203 174.64974609 25.92763672 175.22216797 26.77099609 C186.35194898 43.94903226 185.1341105 64.01585473 185.04294467 83.72272015 C185.02888813 87.52643208 185.03557685 91.33012142 185.03907776 95.1338501 C185.04176257 101.51151237 185.02845029 107.88898456 185.00512695 114.26660156 C184.97848232 121.60242624 184.97679115 128.93793451 184.98851532 136.27379107 C184.99935186 143.38584801 184.99306315 150.49779234 184.97896004 157.60984039 C184.97325551 160.61267055 184.97323852 163.6154168 184.97802544 166.61824799 C184.98285307 170.16113341 184.97245893 173.70367903 184.95107079 177.24650002 C184.94299748 179.14014192 184.94928751 181.03382873 184.95626831 182.92747498 C184.80373654 200.83464276 180.07500113 218.05763227 167.53857422 231.29052734 C166.87857422 231.29052734 166.21857422 231.29052734 165.53857422 231.29052734 C165.28978516 231.88994141 165.04099609 232.48935547 164.78466797 233.10693359 C160.91473633 239.88841255 150.57490918 243.74940616 143.53857422 246.29052734 C134.4315375 248.3269958 125.34416183 248.58318288 116.05029297 248.56518555 C114.65076428 248.569546 113.25123797 248.57473352 111.85171509 248.58067322 C108.0913739 248.59392836 104.33113403 248.59465735 100.57077408 248.59210992 C97.41497223 248.59103139 94.25919016 248.59594567 91.1033926 248.60071534 C83.65175804 248.61176295 76.20017392 248.61227422 68.74853516 248.60620117 C61.09528525 248.60015924 53.44221909 248.61248887 45.78900051 248.63377124 C39.18390716 248.65145447 32.57887195 248.65737823 25.97375584 248.6541335 C22.04376271 248.65233186 18.11390083 248.65484407 14.18392944 248.66884804 C10.48684623 248.68153275 6.79004744 248.67938324 3.09296799 248.66643715 C1.11198923 248.66298994 -0.86899867 248.67416902 -2.84994507 248.68600464 C-19.57644452 248.58909971 -32.78409432 244.18733472 -45.46142578 233.29052734 C-46.06728516 232.79166016 -46.67314453 232.29279297 -47.29736328 231.77880859 C-58.32848155 221.87076798 -62.98915961 207.55799121 -64.46142578 193.29052734 C-64.70934418 188.64466045 -64.73581553 184.01477697 -64.72021484 179.36303711 C-64.72371948 178.04884796 -64.72722412 176.73465881 -64.73083496 175.38064575 C-64.7398438 171.82062517 -64.73646277 168.26072232 -64.73007679 164.70070004 C-64.72495533 160.9454783 -64.72972519 157.19026555 -64.73284912 153.43504333 C-64.73647152 147.13188905 -64.73173576 140.82878187 -64.72216797 134.52563477 C-64.7112915 127.27744757 -64.71481012 120.02937301 -64.72582078 112.78118855 C-64.73494885 106.51744433 -64.73615202 100.25373366 -64.73094344 93.98998493 C-64.72785325 90.26677322 -64.72733172 86.54361412 -64.73401642 82.82040596 C-64.74096191 78.66267549 -64.73128776 74.50513367 -64.72021484 70.34741211 C-64.72426331 69.1422847 -64.72831177 67.93715729 -64.73248291 66.69551086 C-64.6482286 49.46821253 -62.17870883 32.81299406 -50.46142578 19.29052734 C-49.47142578 18.96052734 -48.48142578 18.63052734 -47.46142578 18.29052734 C-47.15978516 17.68080078 -46.85814453 17.07107422 -46.54736328 16.44287109 C-42.70815525 8.83350554 -31.08560214 4.81302435 -23.46142578 2.29052734 C-15.61239644 0.12396917 -8.10380619 -0.006748 0 0 Z " fill="#B76ED6" transform="translate(260.46142578125,79.70947265625)"/>
<path d="M0 0 C0.86367188 -0.00193359 1.72734375 -0.00386719 2.6171875 -0.00585938 C3.50664062 0.01798828 4.39609375 0.04183594 5.3125 0.06640625 C6.64667969 0.0499707 6.64667969 0.0499707 8.0078125 0.03320312 C12.08718033 0.07886769 14.69809562 0.28970383 18.3125 2.28515625 C20.69146621 5.07300728 21.43170925 7.13860127 22.3125 10.69140625 C22.62703125 11.91214844 22.9415625 13.13289062 23.265625 14.390625 C23.42998047 15.06013184 23.59433594 15.72963867 23.76367188 16.41943359 C24.59271556 19.75699825 25.48647578 23.07696046 26.37109375 26.40014648 C27.36413213 30.13981961 28.33841207 33.88425676 29.3125 37.62890625 C32.41537697 30.01859557 34.15216499 22.22766169 35.88671875 14.20898438 C36.91839895 9.79813774 37.90592919 6.26880656 40.34765625 2.42578125 C44.79379209 -0.26884653 48.77458463 -0.06276238 53.875 0.06640625 C55.29329102 0.0499707 55.29329102 0.0499707 56.74023438 0.03320312 C63.64585513 0.10640759 63.64585513 0.10640759 66.42306519 2.28311157 C68.83103647 5.27268611 68.82403543 6.88627123 68.84594727 10.69506836 C68.8617836 11.9199144 68.87761993 13.14476044 68.89393616 14.40672302 C68.88897629 15.72656693 68.88401642 17.04641083 68.87890625 18.40625 C68.88414331 19.77861452 68.89042009 21.15097543 68.89768982 22.52333069 C68.90809021 25.39748082 68.90353914 28.27113576 68.88891602 31.14526367 C68.8717368 34.82212512 68.89521133 38.49742257 68.93040562 42.17410946 C68.95240639 45.00784083 68.95093182 47.84119956 68.9426403 50.6749897 C68.94142517 52.68741561 68.96133722 54.6998185 68.98158264 56.71214294 C68.87800389 66.8608211 68.87800389 66.8608211 65.90429688 69.96118164 C61.88220702 72.54924643 60.02971885 72.22791817 55.3125 71.62890625 C52.07636646 69.8863728 51.48854685 69.15704681 50.3125 65.62890625 C50.15815842 62.68173452 50.0549397 59.7539176 49.99609375 56.8046875 C49.97531265 55.94328659 49.95453156 55.08188568 49.93312073 54.19438171 C49.86775091 51.44347081 49.80879868 48.69246469 49.75 45.94140625 C49.70680283 44.07616204 49.66318815 42.21092745 49.61914062 40.34570312 C49.51208237 35.77353501 49.41077946 31.20127115 49.3125 26.62890625 C49.02004395 27.78938477 48.72758789 28.94986328 48.42626953 30.14550781 C47.33880699 34.45545215 46.24527016 38.76383597 45.14990234 43.07177734 C44.67689141 44.93561548 44.20552334 46.79987136 43.73583984 48.66455078 C43.05999513 51.34649695 42.37823424 54.02687963 41.6953125 56.70703125 C41.48689728 57.5394635 41.27848206 58.37189575 41.06375122 59.22955322 C40.76366653 60.40031403 40.76366653 60.40031403 40.45751953 61.59472656 C40.28431183 62.27867493 40.11110413 62.96262329 39.93264771 63.66729736 C39.01179657 66.58007082 38.14276092 68.990244 35.6875 70.87890625 C32.24834753 71.9649544 28.83341374 72.40258934 25.3125 71.62890625 C21.14961399 69.15992731 19.64000662 66.80234841 18.39916992 62.14404297 C18.22619385 61.41717285 18.05321777 60.69030273 17.875 59.94140625 C17.67817627 59.17844238 17.48135254 58.41547852 17.27856445 57.62939453 C16.60040512 54.96773081 15.95493954 52.29941266 15.3125 49.62890625 C15.04727539 48.54367676 14.78205078 47.45844727 14.50878906 46.34033203 C12.74258414 39.11114298 11.01240257 31.87395968 9.3125 24.62890625 C9.30633667 26.55138184 9.30633667 26.55138184 9.30004883 28.51269531 C9.27827257 33.26912623 9.22399835 38.02472812 9.15991211 42.78076172 C9.13671898 44.83894911 9.12233332 46.8972554 9.11694336 48.95556641 C9.10766345 51.91514293 9.06669415 54.8728459 9.01953125 57.83203125 C9.02543022 59.2119223 9.02543022 59.2119223 9.03144836 60.61968994 C8.88545131 67.0160153 8.88545131 67.0160153 5.89941406 70.21020508 C1.92138594 72.39181336 -0.18471652 72.12921553 -4.6875 71.62890625 C-7.92363354 69.8863728 -8.51145315 69.15704681 -9.6875 65.62890625 C-9.80097707 63.70816673 -9.85667461 61.78380606 -9.88037109 59.85986328 C-9.89643402 58.67498322 -9.91249695 57.49010315 -9.92904663 56.26931763 C-9.97347464 50.86036716 -10.01498267 45.45156104 -10.03759766 40.04248047 C-10.05094401 37.18668639 -10.07881228 34.33160569 -10.11962891 31.47607422 C-10.17841584 27.36283308 -10.1962539 23.25035799 -10.2109375 19.13671875 C-10.23360687 17.85950958 -10.25627625 16.58230042 -10.27963257 15.26638794 C-10.25859009 6.47159717 -10.25859009 6.47159717 -7.44775391 2.32397461 C-4.64386585 0.60211057 -3.24641861 -0.00301836 0 0 Z " fill="#FDFBFD" transform="translate(260.6875,168.37109375)"/>
<path d="M0 0 C1.51188148 -0.0238678 1.51188148 -0.0238678 3.05430603 -0.04821777 C4.68560204 -0.0485199 4.68560204 -0.0485199 6.34985352 -0.04882812 C7.46812027 -0.05644165 8.58638702 -0.06405518 9.73854065 -0.07189941 C12.10480515 -0.08271073 14.47111741 -0.08554936 16.83740234 -0.08105469 C20.46150165 -0.08008275 24.08348215 -0.12168788 27.70727539 -0.16601562 C30.00479701 -0.17122268 32.302326 -0.17391082 34.59985352 -0.17382812 C35.68535995 -0.19022339 36.77086639 -0.20661865 37.88926697 -0.22351074 C45.38303007 -0.15454183 45.38303007 -0.15454183 48.72900391 2.765625 C50.31993169 5.98359093 50.56954872 7.87283892 50.04125977 11.41992188 C48.26141572 14.55583758 47.5181777 15.26094923 44.04125977 16.41992188 C41.64634991 16.48962239 39.24958285 16.5044019 36.85375977 16.48242188 C35.58145508 16.47339844 34.30915039 16.464375 32.99829102 16.45507812 C31.53456055 16.43767578 31.53456055 16.43767578 30.04125977 16.41992188 C30.0479216 17.03744324 30.05458344 17.6549646 30.06144714 18.29119873 C30.12778708 24.71491289 30.17305484 31.13852982 30.20605469 37.5625 C30.22114659 39.96032666 30.24162227 42.3581257 30.26757812 44.75585938 C30.30394288 48.2012412 30.32098225 51.64625824 30.33422852 55.09179688 C30.34971237 56.1648407 30.36519623 57.23788452 30.38114929 58.34344482 C30.38137589 59.3441803 30.38160248 60.34491577 30.38183594 61.37597656 C30.38849777 62.25533875 30.39515961 63.13470093 30.40202332 64.04071045 C29.9601772 66.95465593 29.06300214 68.29984829 27.04125977 70.41992188 C22.86446387 71.81218718 18.95573637 72.04083321 14.72875977 70.66992188 C12.61611675 69.10500112 12.03104135 67.85034971 11.04125977 65.41992188 C10.80075073 63.07867432 10.80075073 63.07867432 10.81420898 60.46777344 C10.81436005 59.48705872 10.81451111 58.50634399 10.81466675 57.49591064 C10.82498932 56.4447406 10.83531189 55.39357056 10.84594727 54.31054688 C10.84877716 53.22860046 10.85160706 52.14665405 10.85452271 51.03192139 C10.86571367 47.57780884 10.89081657 44.123956 10.91625977 40.66992188 C10.92629095 38.3274777 10.93541656 35.98502947 10.94360352 33.64257812 C10.96564947 27.90160416 10.99911642 22.16078158 11.04125977 16.41992188 C10.07704102 16.443125 9.11282227 16.46632812 8.11938477 16.49023438 C6.85610352 16.50828125 5.59282227 16.52632812 4.29125977 16.54492188 C3.03829102 16.568125 1.78532227 16.59132812 0.49438477 16.61523438 C-2.69834839 16.43464992 -4.36905959 16.21761281 -6.95874023 14.41992188 C-8.1221725 12.09305734 -8.15770012 10.57270774 -8.20874023 7.98242188 C-8.24741211 6.80873047 -8.24741211 6.80873047 -8.28686523 5.61132812 C-7.56076263 0.76199998 -4.43577285 0.04208986 0 0 Z " fill="#FDFAFD" transform="translate(340.958740234375,168.580078125)"/>
<path d="M0 0 C0.66 0 1.32 0 2 0 C12.28612719 14.09259353 9.58065196 35.94279791 9.50437045 52.4321928 C9.49031391 56.23590474 9.49700263 60.03959407 9.50050354 63.84332275 C9.50318835 70.22098503 9.48987607 76.59845722 9.46655273 82.97607422 C9.4399081 90.3118989 9.43821694 97.64740717 9.4499411 104.98326373 C9.46077764 112.09532066 9.45448893 119.207265 9.44038582 126.31931305 C9.43468129 129.32214321 9.4346643 132.32488945 9.43945122 135.32772064 C9.44427885 138.87060606 9.43388471 142.41315169 9.41249657 145.95597267 C9.40442326 147.84961457 9.4107133 149.74330139 9.41769409 151.63694763 C9.28216772 167.54768891 5.42908086 180.68805352 -3 194 C-4.22419163 190.06204091 -3.48320272 187.83887763 -2 184 C-1.34 184 -0.68 184 0 184 C0 182.68 0 181.36 0 180 C-0.99 180 -1.98 180 -3 180 C-3.33 179.01 -3.66 178.02 -4 177 C-1.69 177.33 0.62 177.66 3 178 C7.37756847 164.86729458 5.14538072 148.02554002 5.1328125 134.3671875 C5.13348791 131.76384472 5.13445991 129.16050199 5.13571167 126.55715942 C5.13752277 121.10890183 5.13515884 115.66065786 5.13037109 110.21240234 C5.12496896 103.99492053 5.12666572 97.77747173 5.1321975 91.55999076 C5.13736721 85.49774435 5.13671117 79.43551204 5.13381577 73.37326431 C5.13315941 70.83418905 5.13392841 68.29511291 5.13629532 65.75603867 C5.14604653 52.34254348 5.02238841 38.93970647 4.61669922 25.53173828 C4.58635653 24.34799559 4.55601383 23.16425289 4.52475166 21.94463921 C4.48668341 20.84473719 4.44861515 19.74483517 4.40939331 18.61160278 C4.37881773 17.64608553 4.34824215 16.68056828 4.31674004 15.68579292 C3.98025296 12.83255527 3.18199597 10.60714337 2 8 C1.34 8 0.68 8 0 8 C0 5.36 0 2.72 0 0 Z " fill="#6B3665" transform="translate(436,111)"/>
<path d="M0 0 C3.3 0 6.6 0 10 0 C10 0.33 10 0.66 10 1 C8.046875 1.390625 6.09375 1.78125 4.140625 2.171875 C1.27809805 3.27927594 -0.05587043 4.625013 -2 7 C-2.58973362 9.78852951 -2.58973362 9.78852951 -2.48583984 12.8984375 C-2.4919931 14.08646973 -2.49814636 15.27450195 -2.50448608 16.49853516 C-2.49011505 17.77776855 -2.47574402 19.05700195 -2.4609375 20.375 C-2.46002106 21.69161621 -2.45910461 23.00823242 -2.4581604 24.36474609 C-2.45503588 27.14897838 -2.43849908 29.93269445 -2.41162109 32.71679688 C-2.37764128 36.28121832 -2.36999274 39.845073 -2.37151146 43.40963745 C-2.37083606 46.81483388 -2.35315393 50.21984538 -2.3359375 53.625 C-2.33371185 54.9042334 -2.33148621 56.1834668 -2.32919312 57.50146484 C-2.31643341 58.68949707 -2.30367371 59.8775293 -2.29052734 61.1015625 C-2.28290375 62.14650879 -2.27528015 63.19145508 -2.26742554 64.26806641 C-1.99646009 67.03616257 -1.51336282 68.68403623 0 71 C3.13032236 72.56516118 6.59073084 72.540337 10 72 C12.17069552 70.82041916 12.17069552 70.82041916 14 69 C14.61292341 66.85705554 14.61292341 66.85705554 14.54589844 64.43676758 C14.56561707 63.51603958 14.58533569 62.59531158 14.60565186 61.64668274 C14.60688049 60.65597275 14.60810913 59.66526276 14.609375 58.64453125 C14.62591125 57.62775803 14.64244751 56.6109848 14.65948486 55.56340027 C14.70810414 52.3130396 14.72936706 49.06314722 14.75 45.8125 C14.77814797 43.6100023 14.80807373 41.40752655 14.83984375 39.20507812 C14.91386646 33.80347084 14.96542723 28.401996 15 23 C16.96711286 25.95066929 17.55804616 27.73381096 18.33203125 31.12890625 C18.57066895 32.15612793 18.80930664 33.18334961 19.05517578 34.24169922 C19.30509277 35.33756348 19.55500977 36.43342773 19.8125 37.5625 C20.34560708 39.82730624 20.88078048 42.09162705 21.41796875 44.35546875 C21.68399902 45.47743652 21.9500293 46.5994043 22.22412109 47.75537109 C23.31274682 52.30786822 24.43240052 56.84861828 25.625 61.375 C25.80651611 62.11049072 25.98803223 62.84598145 26.17504883 63.60375977 C26.98743143 66.61558106 27.70827789 68.69867387 29.8984375 70.9609375 C32.16054373 72.07937664 33.49614395 72.34780688 36 72.25 C36.99 72.22679687 36.99 72.22679687 38 72.203125 C40.07627831 71.99225298 41.99086999 71.55609848 44 71 C44.26554687 69.91460937 44.53109375 68.82921875 44.8046875 67.7109375 C45.16133082 66.26559353 45.5181088 64.82028278 45.875 63.375 C46.04902344 62.66214844 46.22304688 61.94929688 46.40234375 61.21484375 C47.42854338 57.07203784 48.58790729 53.03273322 50 49 C50.33 49 50.66 49 51 49 C50.41509121 55.14154225 49.45933748 61.00679849 48 67 C48.99 67.495 48.99 67.495 50 68 C49.67 68.66 49.34 69.32 49 70 C49.99 70.495 49.99 70.495 51 71 C45.65628483 73.66135225 41.61926317 74.42591883 35.6875 74.25 C34.97271484 74.24484375 34.25792969 74.2396875 33.52148438 74.234375 C28.31161929 74.15580965 28.31161929 74.15580965 26 73 C25.18359375 71.0390625 25.18359375 71.0390625 24.4375 68.625 C24.06431641 67.43777344 24.06431641 67.43777344 23.68359375 66.2265625 C23.45800781 65.49179688 23.23242188 64.75703125 23 64 C22.67 63.01 22.34 62.02 22 61 C21.34 61 20.68 61 20 61 C19.86722656 61.61488281 19.73445313 62.22976562 19.59765625 62.86328125 C19.33275391 64.07564453 19.33275391 64.07564453 19.0625 65.3125 C18.80146484 66.51326172 18.80146484 66.51326172 18.53515625 67.73828125 C18 70 18 70 17 73 C13.27078969 74.60757938 8.93992762 74.22117964 4.9375 74.25 C4.21755859 74.270625 3.49761719 74.29125 2.75585938 74.3125 C-2.52616272 74.35173508 -2.52616272 74.35173508 -4.7088623 72.73149109 C-6.2864809 70.61581237 -6.35675452 69.58426524 -6.31054688 66.96801758 C-6.30349731 66.15564133 -6.29644775 65.34326508 -6.28918457 64.50627136 C-6.26594116 63.62377213 -6.24269775 62.74127289 -6.21875 61.83203125 C-6.20614136 60.906147 -6.19353271 59.98026276 -6.18054199 59.02632141 C-6.13547542 56.01707643 -6.06845653 53.00879616 -6 50 C-5.96388284 47.98878656 -5.92872575 45.97755564 -5.89453125 43.96630859 C-5.78479275 37.87282116 -5.64415568 31.78025441 -5.5 25.6875 C-5.45160523 23.56706225 -5.40342718 21.44661954 -5.35546875 19.32617188 C-5.23946369 14.21738762 -5.12057392 9.10867838 -5 4 C-4.0409375 3.8453125 -4.0409375 3.8453125 -3.0625 3.6875 C-2.381875 3.460625 -1.70125 3.23375 -1 3 C-0.67 2.01 -0.34 1.02 0 0 Z " fill="#9B79D5" transform="translate(254,167)"/>
<path d="M0 0 C1.44495487 -0.00599475 2.88990656 -0.01280245 4.33485413 -0.02035522 C8.23811376 -0.03793011 12.14128555 -0.0427071 16.04458094 -0.0439868 C18.49089995 -0.04541425 20.93719705 -0.04969512 23.38351059 -0.05498123 C31.94009554 -0.07345617 40.49661842 -0.08165538 49.05322266 -0.08007812 C56.99268225 -0.0788787 64.93186914 -0.09994841 72.87125981 -0.13156545 C79.71664253 -0.15784113 86.56193682 -0.16844066 93.40736949 -0.16716731 C97.48285016 -0.16666081 101.5580884 -0.17216868 105.63351822 -0.19352341 C109.47342389 -0.21309642 113.31286071 -0.21290248 117.15278435 -0.19849014 C118.54942332 -0.19642402 119.94609313 -0.20096907 121.34267998 -0.21321106 C135.80835811 -0.33163633 148.15859211 2.56912478 160.53857422 10.29052734 C160.53857422 10.95052734 160.53857422 11.61052734 160.53857422 12.29052734 C157.78857422 12.54052734 157.78857422 12.54052734 154.53857422 12.29052734 C152.16357422 10.29052734 152.16357422 10.29052734 150.53857422 8.29052734 C149.87857422 8.95052734 149.21857422 9.61052734 148.53857422 10.29052734 C148.20857422 9.63052734 147.87857422 8.97052734 147.53857422 8.29052734 C144.1934707 6.66317969 142.35021587 6.29052734 138.53857422 6.29052734 C136.87190755 6.29052734 135.20524089 6.29052734 133.53857422 6.29052734 C133.53857422 5.63052734 133.53857422 4.97052734 133.53857422 4.29052734 C132.41322266 4.30212891 131.28787109 4.31373047 130.12841797 4.32568359 C122.91682681 4.37554972 115.79027583 4.38159113 108.60107422 3.72802734 C96.94282141 2.80763896 85.2005439 3.73011232 73.53857422 4.29052734 C73.53857422 3.63052734 73.53857422 2.97052734 73.53857422 2.29052734 C71.95489675 2.43257475 70.37164104 2.57932887 68.78857422 2.72802734 C67.90685547 2.80923828 67.02513672 2.89044922 66.11669922 2.97412109 C63.60742032 3.22397623 63.60742032 3.22397623 61.49169922 3.82568359 C58.56944136 4.52118096 55.74361702 4.30984358 52.75732422 4.22802734 C50.51582892 4.21035817 50.51582892 4.21035817 48.31982422 4.85302734 C47.73201172 4.99740234 47.14419922 5.14177734 46.53857422 5.29052734 C46.04357422 4.79552734 46.04357422 4.79552734 45.53857422 4.29052734 C41.97530976 4.21762168 38.42224758 4.29449164 34.85888672 4.35302734 C31.53857422 4.29052734 31.53857422 4.29052734 28.53857422 3.29052734 C26.1603653 3.40244306 23.78475673 3.57629319 21.41357422 3.79052734 C19.12510037 3.99644319 16.83329349 4.1731504 14.53857422 4.29052734 C14.04357422 3.79552734 14.04357422 3.79552734 13.53857422 3.29052734 C11.17458953 3.18974614 8.84046111 3.15079519 6.47607422 3.15771484 C5.7695874 3.15675812 5.06310059 3.15580139 4.33520508 3.15481567 C2.83886628 3.15413402 1.34252455 3.1559873 -0.15380859 3.16015625 C-2.45172735 3.16550477 -4.74945064 3.16021084 -7.04736328 3.15380859 C-8.49788455 3.15446938 -9.94840569 3.15575055 -11.39892578 3.15771484 C-12.09058838 3.15569061 -12.78225098 3.15366638 -13.49487305 3.15158081 C-16.75878216 2.88822001 -16.75878216 2.88822001 -19.46142578 4.29052734 C-21.79440011 4.33145672 -24.12847803 4.33294458 -26.46142578 4.29052734 C-18.7106225 -0.87667485 -8.9570523 -0.0074585 0 0 Z " fill="#642C59" transform="translate(260.46142578125,79.70947265625)"/>
<path d="M0 0 C2.18663819 -0.06452066 4.37284952 -0.10909124 6.56005859 -0.14892578 C7.81560547 -0.17921875 9.07115234 -0.20951172 10.36474609 -0.24072266 C13.98174388 0.09757302 15.83058973 0.8601373 18.68505859 3.06982422 C20.16717667 7.39701317 19.87973496 11.92339671 19.12255859 16.38232422 C17.20277553 19.97148385 14.94827218 21.65788375 11.68505859 24.06982422 C11.68505859 23.40982422 11.68505859 22.74982422 11.68505859 22.06982422 C8.71505859 22.06982422 5.74505859 22.06982422 2.68505859 22.06982422 C0.02543206 32.70833035 0.55256922 43.986431 0.62255859 54.88232422 C0.62759175 56.26839028 0.6321514 57.65445815 0.63623047 59.04052734 C0.64787906 62.38367397 0.6642343 65.72672432 0.68505859 69.06982422 C0.02505859 69.06982422 -0.63494141 69.06982422 -1.31494141 69.06982422 C-1.64494141 69.72982422 -1.97494141 70.38982422 -2.31494141 71.06982422 C-2.31494141 53.90982422 -2.31494141 36.74982422 -2.31494141 19.06982422 C2.30505859 18.73982422 6.92505859 18.40982422 11.68505859 18.06982422 C15.68505859 16.56982422 15.68505859 16.56982422 16.68505859 14.06982422 C16.96575691 10.84179363 17.07376612 8.76893309 15.4813385 5.90487671 C13.83095425 3.8821327 13.83095425 3.8821327 11.40159607 3.5753479 C10.50828079 3.57819794 9.61496552 3.58104797 8.69458008 3.58398438 C7.17301552 3.57475449 7.17301552 3.57475449 5.62071228 3.56533813 C3.98000511 3.58689468 3.98000511 3.58689468 2.30615234 3.60888672 C0.62163719 3.61026138 0.62163719 3.61026138 -1.09690857 3.61166382 C-3.47163111 3.61770829 -5.84634573 3.6334794 -8.22094727 3.65820312 C-11.8664949 3.69471459 -15.51102693 3.69922257 -19.15673828 3.69873047 C-21.46078357 3.70856094 -23.76482194 3.72021764 -26.06884766 3.73388672 C-27.16467667 3.73611237 -28.26050568 3.73833801 -29.38954163 3.7406311 C-30.40076584 3.75339081 -31.41199005 3.76615051 -32.45385742 3.77929688 C-33.34637711 3.78692047 -34.23889679 3.79454407 -35.15846252 3.80239868 C-37.52667225 3.87174864 -37.52667225 3.87174864 -39.31494141 6.06982422 C-39.59556467 8.21126163 -39.59556467 8.21126163 -39.50244141 10.56982422 C-39.49599609 11.36388672 -39.48955078 12.15794922 -39.48291016 12.97607422 C-39.44169977 15.12818813 -39.44169977 15.12818813 -38.31494141 17.06982422 C-36.67131007 17.79141846 -35.00443755 18.46333843 -33.31494141 19.06982422 C-36.99282259 20.29578461 -38.09943754 19.91292499 -42.31494141 19.06982422 C-42.64494141 34.57982422 -42.97494141 50.08982422 -43.31494141 66.06982422 C-43.64494141 66.06982422 -43.97494141 66.06982422 -44.31494141 66.06982422 C-44.31494141 46.59982422 -44.31494141 27.12982422 -44.31494141 7.06982422 C-43.32494141 6.73982422 -42.33494141 6.40982422 -41.31494141 6.06982422 C-41.31494141 5.07982422 -41.31494141 4.08982422 -41.31494141 3.06982422 C-40.32494141 3.06982422 -39.33494141 3.06982422 -38.31494141 3.06982422 C-38.31494141 2.40982422 -38.31494141 1.74982422 -38.31494141 1.06982422 C-33.48104205 0.92437398 -28.64706146 0.78213208 -23.81298828 0.64257812 C-22.17624504 0.5949091 -20.53952497 0.54643615 -18.90283203 0.49707031 C-14.14941197 0.35400054 -9.39604868 0.22778917 -4.64160156 0.12402344 C-3.0942686 0.08797854 -1.54704917 0.04666274 0 0 Z " fill="#C380BB" transform="translate(373.31494140625,165.93017578125)"/>
<path d="M0 0 C1.68407508 0.47154102 3.36752552 0.94549014 5.046875 1.43359375 C6.81928388 1.94759233 8.59689099 2.44358083 10.375 2.9375 C11.24125 3.288125 12.1075 3.63875 13 4 C13.33 4.99 13.66 5.98 14 7 C16.50447516 8.21869929 16.50447516 8.21869929 19 9 C19 9.66 19 10.32 19 11 C19.9075 11.12375 20.815 11.2475 21.75 11.375 C26.03384478 11.97957487 30.28843492 12.73871462 34.546875 13.5 C47.38516972 15.3589386 60.16116792 15.0725691 73.10107422 14.97949219 C75.90591914 14.96111879 78.71074549 14.94920854 81.515625 14.9375 C82.34427063 14.92920166 83.17291626 14.92090332 84.02667236 14.91235352 C89.07376401 14.89212716 94.05852209 15.11904202 99.09301758 15.48413086 C107.39531672 16.07287838 115.67556181 16.22264791 123.99609375 16.31640625 C125.56649734 16.33704855 127.13689629 16.35804648 128.70729065 16.37937927 C132.78577855 16.43385069 136.8643101 16.48358133 140.94287109 16.53222656 C145.12666581 16.58299878 149.31039932 16.63839008 153.49414062 16.69335938 C161.66270824 16.80002036 169.831328 16.90165867 178 17 C178 17.33 178 17.66 178 18 C159.44927703 18.07025883 140.89858127 18.12307053 122.34775257 18.15543652 C113.73317311 18.17086786 105.11867659 18.19188551 96.50415039 18.22631836 C88.99073165 18.25633555 81.47737302 18.27560209 73.96389598 18.28226548 C69.99008943 18.286157 66.01645477 18.29522356 62.04270363 18.31719017 C58.29247515 18.33775064 54.54248722 18.34379491 50.79220772 18.33932304 C48.78007033 18.3405251 46.76795836 18.3565638 44.75588989 18.3732605 C28.30482611 18.31808068 14.30255603 14.1889626 2 3 C1.34 2.01 0.68 1.02 0 0 Z " fill="#4D3E8E" transform="translate(213,310)"/>
<path d="M0 0 C0.33 0 0.66 0 1 0 C1.33 31.68 1.66 63.36 2 96 C2.33 96 2.66 96 3 96 C2.99214478 97.61056274 2.99214478 97.61056274 2.98413086 99.25366211 C2.96589984 103.27367301 2.95450242 107.29368033 2.94506836 111.3137207 C2.94006925 113.04679989 2.93326776 114.77987493 2.92456055 116.51293945 C2.91229973 119.01775138 2.90672734 121.52250708 2.90234375 124.02734375 C2.89718246 124.79022202 2.89202118 125.55310028 2.88670349 126.33909607 C2.88542763 138.84062307 3.91333373 152.04717998 12 162 C12.67966676 163.66140763 13.34938905 165.32700041 14 167 C14.8353125 167.7734375 14.8353125 167.7734375 15.6875 168.5625 C16.120625 169.036875 16.55375 169.51125 17 170 C16.6875 172.1875 16.6875 172.1875 16 174 C2.44477629 158.85004409 -0.34300272 142.68052387 -0.22705078 122.83447266 C-0.2264847 121.48267119 -0.22680706 120.13086911 -0.22793579 118.77906799 C-0.22850263 115.15805588 -0.21685852 111.53718003 -0.20278788 107.91619921 C-0.19016724 104.11392973 -0.18910119 100.31165609 -0.18673706 96.5093689 C-0.18055523 89.33098889 -0.16418974 82.15267081 -0.14403808 74.97431791 C-0.12157557 66.79277919 -0.11065979 58.61123729 -0.10064721 50.42967534 C-0.07982004 33.61974748 -0.0447092 16.80988168 0 0 Z " fill="#493D8F" transform="translate(196,136)"/>
<path d="M0 0 C0.66 0.33 1.32 0.66 2 1 C1.34 1.66 0.68 2.32 0 3 C0.66 3.66 1.32 4.32 2 5 C1.43410156 5.59167969 0.86820313 6.18335937 0.28515625 6.79296875 C-0.81505859 7.97826172 -0.81505859 7.97826172 -1.9375 9.1875 C-2.66839844 9.96480469 -3.39929688 10.74210937 -4.15234375 11.54296875 C-6.09868063 14.13122646 -6.64399886 15.81859299 -7 19 C-7.66 19 -8.32 19 -9 19 C-8.95875 19.9075 -8.9175 20.815 -8.875 21.75 C-9 25 -9 25 -9.99780273 26.85620117 C-11.26630923 29.56966171 -11.21187928 31.56247687 -11.16015625 34.55078125 C-11.14863525 35.63544678 -11.13711426 36.7201123 -11.12524414 37.83764648 C-11.10453857 38.98434814 -11.08383301 40.1310498 -11.0625 41.3125 C-10.97019166 50.04921261 -11.06990439 58.6405768 -11.87890625 67.33984375 C-12.16431474 70.10545786 -12.16431474 70.10545786 -11 73 C-10.90662128 74.42340876 -10.8693028 75.85087692 -10.8671875 77.27734375 C-10.86517334 78.16607178 -10.86315918 79.0547998 -10.86108398 79.97045898 C-10.86567627 80.94958252 -10.87026855 81.92870605 -10.875 82.9375 C-10.87765869 83.96496338 -10.88031738 84.99242676 -10.88305664 86.05102539 C-10.94033893 96.01596856 -11.17537159 105.97624061 -11.4375 115.9375 C-11.4570575 116.71785614 -11.47661499 117.49821228 -11.49676514 118.30221558 C-11.69997022 126.2425639 -11.93296397 134.11828008 -13 142 C-13.33 142 -13.66 142 -14 142 C-14.07025018 127.30899022 -14.12306629 112.61800283 -14.15543652 97.9268589 C-14.17086971 91.10466503 -14.19189083 84.28257586 -14.22631836 77.46044922 C-14.25954656 70.87280903 -14.2768697 64.28524875 -14.28463173 57.69752121 C-14.29016111 55.18820869 -14.30095858 52.67890189 -14.31719017 50.16963577 C-14.33906826 46.64632726 -14.34196252 43.12346352 -14.34057617 39.60009766 C-14.351362 38.57006622 -14.36214783 37.54003479 -14.3732605 36.47879028 C-14.31388623 22.47081213 -8.73562472 10.74691975 0 0 Z " fill="#927FE5" transform="translate(211,98)"/>
<path d="M0 0 C1.423125 0.02707031 1.423125 0.02707031 2.875 0.0546875 C3.57625 0.07789063 4.2775 0.10109375 5 0.125 C0.11383402 5.01116598 -7.01267959 5.23203433 -13.5965271 5.26052856 C-14.63699692 5.25749222 -14.63699692 5.25749222 -15.69848633 5.25439453 C-16.44568436 5.25614685 -17.19288239 5.25789917 -17.96272278 5.25970459 C-20.41918296 5.2640855 -22.8755704 5.26119749 -25.33203125 5.2578125 C-27.05067458 5.25848683 -28.76931781 5.25945794 -30.48796082 5.26071167 C-34.08646555 5.26218373 -37.68494542 5.26005067 -41.28344727 5.25537109 C-45.87627816 5.24968702 -50.46905044 5.25294755 -55.06187916 5.25894356 C-58.61110366 5.26257346 -62.16031448 5.26139923 -65.70953941 5.25881577 C-67.40187271 5.25815254 -69.09420727 5.25895362 -70.78653908 5.26129532 C-87.04052623 5.27884583 -87.04052623 5.27884583 -95 4.125 C-95 3.795 -95 3.465 -95 3.125 C-84.20329268 2.19822203 -73.45306998 2.05002398 -62.62109375 2.09765625 C-61.58626799 2.10168016 -61.58626799 2.10168016 -60.53053665 2.10578537 C-54.02475292 2.13220337 -47.51907393 2.17124475 -41.01342773 2.22094727 C-37.42119622 2.24785174 -33.82902512 2.26480451 -30.2367115 2.27581596 C-28.23380342 2.28492783 -26.23095649 2.30529088 -24.22813416 2.32594299 C-15.9239963 2.34883125 -8.12179691 -0.20304492 0 0 Z " fill="#9B77DE" transform="translate(406,321.875)"/>
<path d="M0 0 C1.96711286 2.95066929 2.55804616 4.73381096 3.33203125 8.12890625 C3.57066895 9.15612793 3.80930664 10.18334961 4.05517578 11.24169922 C4.30509277 12.33756348 4.55500977 13.43342773 4.8125 14.5625 C5.34560708 16.82730624 5.88078048 19.09162705 6.41796875 21.35546875 C6.68399902 22.47743652 6.9500293 23.5994043 7.22412109 24.75537109 C8.31274682 29.30786822 9.43240052 33.84861828 10.625 38.375 C10.80651611 39.11049072 10.98803223 39.84598145 11.17504883 40.60375977 C11.98743143 43.61558106 12.70827789 45.69867387 14.8984375 47.9609375 C17.16054373 49.07937664 18.49614395 49.34780688 21 49.25 C21.66 49.23453125 22.32 49.2190625 23 49.203125 C25.07627831 48.99225298 26.99086999 48.55609848 29 48 C29.26554687 46.91460937 29.53109375 45.82921875 29.8046875 44.7109375 C30.16133082 43.26559353 30.5181088 41.82028278 30.875 40.375 C31.13603516 39.30572266 31.13603516 39.30572266 31.40234375 38.21484375 C32.42854338 34.07203784 33.58790729 30.03273322 35 26 C35.33 26 35.66 26 36 26 C35.41509121 32.14154225 34.45933748 38.00679849 33 44 C33.99 44.495 33.99 44.495 35 45 C34.505 45.99 34.505 45.99 34 47 C34.99 47.495 34.99 47.495 36 48 C30.65628483 50.66135225 26.61926317 51.42591883 20.6875 51.25 C19.97271484 51.24484375 19.25792969 51.2396875 18.52148438 51.234375 C13.31161929 51.15580965 13.31161929 51.15580965 11 50 C8.28528532 44.28552559 7.41061666 37.99995539 6.47265625 31.8046875 C6.07655876 29.45429083 5.57269143 27.27359586 4.875 25 C4 22 4 22 4 18 C3.01 18 2.02 18 1 18 C1 26.58 1 35.16 1 44 C0.67 44 0.34 44 0 44 C0 29.48 0 14.96 0 0 Z " fill="#A57FD8" transform="translate(269,190)"/>
<path d="M0 0 C0.66 0 1.32 0 2 0 C6.77474227 6.36632302 7.30075299 13.86711368 7.22705078 21.52734375 C7.22734283 22.33805832 7.22763489 23.14877289 7.22793579 23.98405457 C7.22655431 26.63531601 7.21104944 29.2862883 7.1953125 31.9375 C7.19157816 33.78694505 7.18873318 35.6363921 7.18673706 37.48583984 C7.17913377 42.3322708 7.15951392 47.17858016 7.1373291 52.02496338 C7.11679922 56.97886511 7.10772012 61.93278666 7.09765625 66.88671875 C7.07626469 76.59119899 7.04216898 86.29558935 7 96 C5 94 5 94 4.76622009 91.93582153 C4.77367752 91.08317719 4.78113495 90.23053284 4.78881836 89.35205078 C4.79214676 88.38059113 4.79547516 87.40913147 4.79890442 86.40823364 C4.8124144 85.34796967 4.82592438 84.28770569 4.83984375 83.1953125 C4.8454985 82.09613495 4.85115326 80.9969574 4.85697937 79.86447144 C4.86955541 77.50679065 4.88631108 75.14912921 4.90679932 72.79150391 C4.95765572 66.7178538 4.97277395 60.64414015 4.98828125 54.5703125 C4.99180603 53.38342834 4.99533081 52.19654419 4.9989624 50.97369385 C5.01794872 41.97559154 4.93111914 32.99326694 4.625 24 C4.59398193 22.91348145 4.56296387 21.82696289 4.53100586 20.70751953 C4.49241455 19.73153809 4.45382324 18.75555664 4.4140625 17.75 C4.3826416 16.94046875 4.3512207 16.1309375 4.31884766 15.296875 C3.9495929 12.63688361 3.08254659 10.44834597 2 8 C1.34 8 0.68 8 0 8 C0 5.36 0 2.72 0 0 Z " fill="#D56FA3" transform="translate(436,111)"/>
<path d="M0 0 C0.78072372 -0.00014603 1.56144745 -0.00029205 2.36582947 -0.0004425 C4.94679542 0.00025425 7.52768923 0.00803557 10.10864258 0.01586914 C11.89797425 0.01773416 13.68730643 0.01915767 15.47663879 0.02015686 C20.18664967 0.02397541 24.89662972 0.03380006 29.60662842 0.04486084 C34.4126341 0.05508918 39.21864477 0.05965754 44.0246582 0.06469727 C53.45501029 0.0754229 62.8853395 0.0924914 72.31567383 0.11352539 C72.31567383 0.77352539 72.31567383 1.43352539 72.31567383 2.11352539 C71.41075195 2.2044043 71.41075195 2.2044043 70.48754883 2.29711914 C69.68833008 2.3809082 68.88911133 2.46469727 68.06567383 2.55102539 C66.88231445 2.6728418 66.88231445 2.6728418 65.67504883 2.79711914 C63.31688173 3.06224348 63.31688173 3.06224348 61.08129883 3.71118164 C60.49864258 3.84395508 59.91598633 3.97672852 59.31567383 4.11352539 C58.82067383 3.61852539 58.82067383 3.61852539 58.31567383 3.11352539 C54.75240937 3.04061972 51.19934719 3.11748969 47.63598633 3.17602539 C44.31567383 3.11352539 44.31567383 3.11352539 41.31567383 2.11352539 C38.93746491 2.2254411 36.56185634 2.39929124 34.19067383 2.61352539 C31.90219998 2.81944124 29.6103931 2.99614845 27.31567383 3.11352539 C26.82067383 2.61852539 26.82067383 2.61852539 26.31567383 2.11352539 C23.95168914 2.01274419 21.61756072 1.97379324 19.25317383 1.98071289 C18.54668701 1.97975616 17.8402002 1.97879944 17.11230469 1.97781372 C15.61596589 1.97713206 14.11962416 1.97898534 12.62329102 1.9831543 C10.32537226 1.98850282 8.02764897 1.98320888 5.72973633 1.97680664 C4.27921506 1.97746742 2.82869392 1.97874859 1.37817383 1.98071289 C0.68651123 1.97868866 -0.00515137 1.97666443 -0.71777344 1.97457886 C-3.98168255 1.71121806 -3.98168255 1.71121806 -6.68432617 3.11352539 C-9.0173005 3.15445476 -11.35137842 3.15594262 -13.68432617 3.11352539 C-9.06518697 0.03409926 -5.36615904 -0.0261678 0 0 Z " fill="#B875BD" transform="translate(247.684326171875,80.886474609375)"/>
<path d="M0 0 C0.33 0 0.66 0 1 0 C1.01981934 1.25135742 1.03963867 2.50271484 1.06005859 3.79199219 C1.13615293 8.436402 1.22486463 13.08050008 1.31738281 17.72460938 C1.35565669 19.73431238 1.39051236 21.74408351 1.421875 23.75390625 C1.46755991 26.6434768 1.52554887 29.53257896 1.5859375 32.421875 C1.59748871 33.31992859 1.60903992 34.21798218 1.62094116 35.14324951 C1.64081085 35.98381897 1.66068054 36.82438843 1.68115234 37.69042969 C1.69447601 38.42767273 1.70779968 39.16491577 1.7215271 39.92449951 C2.04487236 42.33444046 2.70079241 43.94887097 4 46 C6.40404738 46.91599427 6.40404738 46.91599427 9.125 47.25 C10.03507812 47.39953125 10.94515625 47.5490625 11.8828125 47.703125 C12.58148438 47.80109375 13.28015625 47.8990625 14 48 C14 48.33 14 48.66 14 49 C12.20841511 49.02696365 10.41671527 49.04637917 8.625 49.0625 C7.62726563 49.07410156 6.62953125 49.08570313 5.6015625 49.09765625 C3 49 3 49 1 48 C-3.0417874 43.27316389 -2.34119735 38.05558596 -2.1875 32.1875 C-2.16719727 30.71893555 -2.16719727 30.71893555 -2.14648438 29.22070312 C-2.11125312 26.81323375 -2.06199265 24.40690436 -2 22 C-2.99 22.33 -3.98 22.66 -5 23 C-4.44636539 14.97229811 -2.34312056 7.66145933 0 0 Z " fill="#A874D2" transform="translate(310,192)"/>
<path d="M0 0 C5.94 0 11.88 0 18 0 C18 0.33 18 0.66 18 1 C16.67935547 1.07347656 16.67935547 1.07347656 15.33203125 1.1484375 C13.58986328 1.26058594 13.58986328 1.26058594 11.8125 1.375 C10.08966797 1.47941406 10.08966797 1.47941406 8.33203125 1.5859375 C4.96545186 2.0042932 1.49424416 2.50575584 -1 5 C-1.09823996 6.47648876 -1.12973519 7.95775417 -1.125 9.4375 C-1.12757813 10.24058594 -1.13015625 11.04367188 -1.1328125 11.87109375 C-1.13578326 14.05397931 -1.13578326 14.05397931 0 16 C1.64363134 16.72159424 3.31050386 17.39351421 5 18 C1.32211882 19.22596039 0.21550387 18.84310077 -4 18 C-4.33 33.51 -4.66 49.02 -5 65 C-5.33 65 -5.66 65 -6 65 C-6 45.53 -6 26.06 -6 6 C-5.01 5.67 -4.02 5.34 -3 5 C-3 4.01 -3 3.02 -3 2 C-2.01 2 -1.02 2 0 2 C0 1.34 0 0.68 0 0 Z " fill="#BE86C8" transform="translate(335,167)"/>
<path d="M0 0 C1.68407508 0.47154102 3.36752552 0.94549014 5.046875 1.43359375 C6.81928388 1.94759233 8.59689099 2.44358083 10.375 2.9375 C11.24125 3.288125 12.1075 3.63875 13 4 C13.33 4.99 13.66 5.98 14 7 C16.50447516 8.21869929 16.50447516 8.21869929 19 9 C19 9.66 19 10.32 19 11 C20.65 11 22.3 11 24 11 C24.33 11.99 24.66 12.98 25 14 C26.32 14 27.64 14 29 14 C29 14.66 29 15.32 29 16 C19.2482973 16.59232565 11.09658308 10.47255245 3.7421875 4.61328125 C2 3 2 3 0 0 Z " fill="#6E63BC" transform="translate(213,310)"/>
<path d="M0 0 C1.423125 0.02707031 1.423125 0.02707031 2.875 0.0546875 C3.57625 0.07789063 4.2775 0.10109375 5 0.125 C0.70641291 4.41858709 -5.20681282 5.02163918 -11.06787109 5.23852539 C-12.12570801 5.23328857 -13.18354492 5.22805176 -14.2734375 5.22265625 C-15.42714844 5.21943359 -16.58085937 5.21621094 -17.76953125 5.21289062 C-18.95933594 5.20451172 -20.14914062 5.19613281 -21.375 5.1875 C-22.58800781 5.18298828 -23.80101562 5.17847656 -25.05078125 5.17382812 C-28.03390507 5.16208354 -31.01692679 5.1456584 -34 5.125 C-32.7331543 3.63891602 -32.7331543 3.63891602 -31 2.125 C-28.19868456 1.95780107 -25.60083784 1.93543043 -22.8125 2.0625 C-18.29407479 2.24993688 -14.21885765 2.31824194 -9.82421875 1.13671875 C-6.32589122 0.21121637 -3.58853208 -0.0897133 0 0 Z " fill="#9D6FCC" transform="translate(406,321.875)"/>
<path d="M0 0 C3.13469996 4.70204994 3.89234788 10.04512399 5.1875 15.5 C5.47302734 16.65371094 5.75855469 17.80742187 6.05273438 18.99609375 C6.45008789 20.65318359 6.45008789 20.65318359 6.85546875 22.34375 C7.09934326 23.35630859 7.34321777 24.36886719 7.59448242 25.41210938 C8 28 8 28 7 31 C6.49242138 29.58603098 5.99425075 28.16868271 5.5 26.75 C5.2215625 25.96109375 4.943125 25.1721875 4.65625 24.359375 C4 22 4 22 4 18 C3.01 18 2.02 18 1 18 C1 26.58 1 35.16 1 44 C0.67 44 0.34 44 0 44 C0 29.48 0 14.96 0 0 Z " fill="#AC92D1" transform="translate(269,190)"/>
<path d="M0 0 C2.375 0.3125 2.375 0.3125 5 1 C7.31290208 4.46935313 7.26602056 5.85546495 7.30639648 9.95263672 C7.32238388 11.17755829 7.33837128 12.40247986 7.35484314 13.66452026 C7.36121993 15.00290511 7.36661265 16.34129496 7.37109375 17.6796875 C7.38006191 19.05347797 7.38918379 20.42726744 7.39845276 21.80105591 C7.41494025 24.68103406 7.42264233 27.560896 7.42553711 30.44091797 C7.43091954 34.12554459 7.46859223 37.80907411 7.51428127 41.49339104 C7.54407336 44.33134923 7.55126111 47.16904397 7.55226326 50.00714493 C7.55646176 51.36511381 7.56888158 52.72308374 7.58978081 54.08089828 C7.75914189 66.03635318 7.75914189 66.03635318 4.60498047 69.34106445 C0.68689034 71.83623057 -1.45874413 71.38485219 -6 71 C-6 70.67 -6 70.34 -6 70 C-4.9275 69.9175 -3.855 69.835 -2.75 69.75 C1.42697196 68.91460561 2.44869726 68.29695767 5 65 C5.61374701 62.18434633 5.61374701 62.18434633 5.54589844 59.03808594 C5.56561707 57.83714294 5.58533569 56.63619995 5.60565186 55.39886475 C5.60688049 54.10708313 5.60810913 52.81530151 5.609375 51.484375 C5.62436026 50.14485679 5.64108815 48.80535704 5.65948486 47.46588135 C5.70313311 43.94778587 5.7231514 40.42993959 5.73822021 36.91162109 C5.75780079 33.31853515 5.79976958 29.72571798 5.83984375 26.1328125 C5.91511783 19.08864411 5.96542602 12.04449525 6 5 C5.195625 4.731875 4.39125 4.46375 3.5625 4.1875 C2.716875 3.795625 1.87125 3.40375 1 3 C0.67 2.01 0.34 1.02 0 0 Z " fill="#FAE8FC" transform="translate(322,169)"/>
<path d="M0 0 C3.96 0 7.92 0 12 0 C12.02505615 1.4634082 12.0501123 2.92681641 12.07592773 4.43457031 C12.17006629 9.86158069 12.27027145 15.288465 12.37231445 20.71533203 C12.41563886 23.0645859 12.45731573 25.41387075 12.49731445 27.76318359 C12.55507715 31.1390924 12.61875468 34.51484561 12.68359375 37.890625 C12.70030624 38.94179504 12.71701874 39.99296509 12.73423767 41.07598877 C12.75418289 42.05670349 12.77412811 43.03741821 12.79467773 44.04785156 C12.81022202 44.90944885 12.8257663 45.77104614 12.84178162 46.65875244 C12.99267792 48.89165105 13.38162272 50.85420545 14 53 C19.28305817 54.69057861 24.67099269 54.29188056 30 53 C30 53.66 30 54.32 30 55 C27.30335792 56.34832104 25.13412479 56.16910682 22.125 56.1875 C21.07570313 56.20167969 20.02640625 56.21585938 18.9453125 56.23046875 C16.02398794 56.00187704 14.38705672 55.6709397 12 54 C11.01533747 51.04601242 10.87872164 49.14750978 10.88647461 46.06958008 C10.88655014 45.06876907 10.88662567 44.06795807 10.88670349 43.03681946 C10.89186478 41.95861435 10.89702606 40.88040924 10.90234375 39.76953125 C10.9037587 38.66397385 10.90517365 37.55841644 10.90663147 36.4193573 C10.91223486 32.88371083 10.92478796 29.34812738 10.9375 25.8125 C10.94251456 23.41731862 10.94707754 21.02213625 10.95117188 18.62695312 C10.9622054 12.75127775 10.97947233 6.87564957 11 1 C7.37 1 3.74 1 0 1 C0 0.67 0 0.34 0 0 Z " fill="#AE73BB" transform="translate(340,185)"/>
<path d="M0 0 C0.66 0 1.32 0 2 0 C2.70121643 2.39256249 3.38614901 4.78790489 4.0625 7.1875 C4.26166016 7.86103516 4.46082031 8.53457031 4.66601562 9.22851562 C5.76309811 13.17416316 6.21781251 16.05551294 5 20 C4.34 20 3.68 20 3 20 C2.01 22.475 2.01 22.475 1 25 C0.67 25 0.34 25 0 25 C0 16.75 0 8.5 0 0 Z " fill="#A073EA" transform="translate(271,208)"/>
<path d="M0 0 C0.66 0 1.32 0 2 0 C2.82245036 13.09066831 -0.93823625 22.14842303 -8 33 C-9.22419163 29.06204091 -8.48320272 26.83887763 -7 23 C-6.34 23 -5.68 23 -5 23 C-5 21.68 -5 20.36 -5 19 C-5.99 19 -6.98 19 -8 19 C-8.33 18.01 -8.66 17.02 -9 16 C-6.69 16.33 -4.38 16.66 -2 17 C-0.84429296 13.53287889 -0.67164707 10.4585044 -0.4375 6.8125 C-0.35371094 5.54019531 -0.26992188 4.26789063 -0.18359375 2.95703125 C-0.12300781 1.98121094 -0.06242187 1.00539063 0 0 Z " fill="#A864AD" transform="translate(441,272)"/>
<path d="M0 0 C0.33 0.99 0.66 1.98 1 3 C1.66 3.33 2.32 3.66 3 4 C3 9.28 3 14.56 3 20 C0.16778628 15.75167941 -0.58403736 11.17363081 -1.8046875 6.25 C-2.77487632 3.06279193 -2.77487632 3.06279193 -4.5546875 1.10546875 C-8.35618223 -0.61309836 -12.12150123 -0.57461136 -16.25 -0.6875 C-17.51070313 -0.73874023 -17.51070313 -0.73874023 -18.796875 -0.79101562 C-20.86412204 -0.87323568 -22.93203874 -0.93830157 -25 -1 C-25 -1.33 -25 -1.66 -25 -2 C-16.6673961 -3.85168976 -7.49879901 -4.49927941 0 0 Z " fill="#AE86CE" transform="translate(283,170)"/>
<path d="M0 0 C0.33 0 0.66 0 1 0 C1.08636719 0.71285156 1.17273438 1.42570312 1.26171875 2.16015625 C2.11011252 7.94324408 3.11879751 11.9646414 6.8359375 16.5078125 C8.38301 18.49097255 9.09369499 20.66950139 10 23 C10.8353125 23.7734375 10.8353125 23.7734375 11.6875 24.5625 C12.120625 25.036875 12.55375 25.51125 13 26 C12.6875 28.1875 12.6875 28.1875 12 30 C5.85453728 23.13154167 -1.58117046 13.56166283 -2.1875 4.0625 C-2.125625 3.381875 -2.06375 2.70125 -2 2 C-1.34 2 -0.68 2 0 2 C0 1.34 0 0.68 0 0 Z " fill="#665AB4" transform="translate(200,280)"/>
<path d="M0 0 C0.66 0 1.32 0 2 0 C7.12158935 6.82878579 7.30516456 14.82540936 7.1875 23 C7.18685547 23.85078125 7.18621094 24.7015625 7.18554688 25.578125 C7.14950855 30.79967726 6.74762084 35.83244477 6 41 C5.67 41 5.34 41 5 41 C4.98018066 40.17798096 4.96036133 39.35596191 4.93994141 38.5090332 C4.84455397 34.77653874 4.73492911 31.0445933 4.625 27.3125 C4.5940625 26.01892578 4.563125 24.72535156 4.53125 23.39257812 C4.49257813 22.14541016 4.45390625 20.89824219 4.4140625 19.61328125 C4.3826416 18.46641846 4.3512207 17.31955566 4.31884766 16.13793945 C4.00576348 13.05672128 3.30329197 10.7917886 2 8 C1.34 8 0.68 8 0 8 C0 5.36 0 2.72 0 0 Z " fill="#D46B93" transform="translate(436,111)"/>
<path d="M0 0 C5.86995371 -0.60204653 9.88689789 1.45633912 15 4 C16.16595703 4.57234375 16.16595703 4.57234375 17.35546875 5.15625 C19.2431817 6.09175376 21.12249306 7.04417829 23 8 C23 8.66 23 9.32 23 10 C20.25 10.25 20.25 10.25 17 10 C14.625 8 14.625 8 13 6 C12.34 6.66 11.68 7.32 11 8 C10.67 7.34 10.34 6.68 10 6 C6.65489648 4.37265234 4.81164166 4 1 4 C0.67 2.68 0.34 1.36 0 0 Z " fill="#BC5A7F" transform="translate(398,82)"/>
<path d="M0 0 C0.66 0.33 1.32 0.66 2 1 C1.34 1.66 0.68 2.32 0 3 C0.66 3.66 1.32 4.32 2 5 C1.43410156 5.59167969 0.86820313 6.18335937 0.28515625 6.79296875 C-0.81505859 7.97826172 -0.81505859 7.97826172 -1.9375 9.1875 C-2.66839844 9.96480469 -3.39929688 10.74210937 -4.15234375 11.54296875 C-6.09868063 14.13122646 -6.64399886 15.81859299 -7 19 C-7.66 19 -8.32 19 -9 19 C-9 19.99 -9 20.98 -9 22 C-9.66 22 -10.32 22 -11 22 C-11.66 23.32 -12.32 24.64 -13 26 C-11.75138343 16.09920508 -6.27859618 7.56993866 0 0 Z " fill="#674990" transform="translate(211,98)"/>
<path d="M0 0 C-1.2065625 0.37125 -1.2065625 0.37125 -2.4375 0.75 C-3.283125 1.1625 -4.12875 1.575 -5 2 C-5.10828125 2.62003906 -5.2165625 3.24007812 -5.328125 3.87890625 C-6 6 -6 6 -8.36328125 7.66796875 C-9.82314453 8.42013672 -9.82314453 8.42013672 -11.3125 9.1875 C-12.76076172 9.95126953 -12.76076172 9.95126953 -14.23828125 10.73046875 C-16.53082106 11.78432368 -18.53802379 12.51462227 -21 13 C-18.44135091 6.5323037 -11.31263215 3.34553143 -5.5625 0 C-3 -1 -3 -1 0 0 Z " fill="#6A4992" transform="translate(234,85)"/>
<path d="M0 0 C0.33 0 0.66 0 1 0 C1.10128166 6.78087633 1.17141525 13.56155822 1.21972656 20.34301758 C1.23986263 22.65070891 1.26717356 24.95834911 1.30175781 27.26586914 C1.35018715 30.57971808 1.37294884 33.89289347 1.390625 37.20703125 C1.41127014 38.2414888 1.43191528 39.27594635 1.45318604 40.3417511 C1.45348816 41.3025206 1.45379028 42.2632901 1.45410156 43.25317383 C1.46298401 44.09922684 1.47186646 44.94527985 1.48101807 45.81697083 C1 48 1 48 -0.84088135 49.85917664 C-1.5533905 50.23564835 -2.26589966 50.61212006 -3 51 C-3.99 50.67 -4.98 50.34 -6 50 C-5.360625 49.401875 -4.72125 48.80375 -4.0625 48.1875 C-1.2067514 45.15867573 -0.87684325 42.71479254 -0.79467773 38.7121582 C-0.7647599 37.42115959 -0.7647599 37.42115959 -0.73423767 36.1040802 C-0.70916893 34.71644722 -0.70916893 34.71644722 -0.68359375 33.30078125 C-0.66281265 32.35059616 -0.64203156 31.40041107 -0.62062073 30.4214325 C-0.55521948 27.38519544 -0.49628396 24.34887169 -0.4375 21.3125 C-0.39430583 19.25454831 -0.35069124 17.19660541 -0.30664062 15.13867188 C-0.19954769 10.09253684 -0.09825354 5.04631457 0 0 Z " fill="#AE78CA" transform="translate(330,189)"/>
<path d="M0 0 C0.33 0 0.66 0 1 0 C1.07602812 7.0474558 1.12859061 14.09480594 1.16479492 21.14257812 C1.17988682 23.54040479 1.2003625 25.93820383 1.22631836 28.3359375 C1.26268311 31.78131933 1.27972248 35.22633637 1.29296875 38.671875 C1.30845261 39.74491882 1.32393646 40.81796265 1.33988953 41.92352295 C1.34011612 42.92425842 1.34034271 43.9249939 1.34057617 44.95605469 C1.34723801 45.83541687 1.35389984 46.71477905 1.36076355 47.62078857 C0.92841984 50.47206635 -0.11924975 51.85719183 -2 54 C-2.99 53.67 -3.98 53.34 -5 53 C-4.34 53 -3.68 53 -3 53 C-1.45463634 49.54820662 -0.74092546 46.80179171 -0.68115234 43.02612305 C-0.66128265 42.06550461 -0.64141296 41.10488617 -0.62094116 40.11515808 C-0.60938995 39.0910231 -0.59783875 38.06688812 -0.5859375 37.01171875 C-0.56657135 35.95338333 -0.5472052 34.89504791 -0.5272522 33.80464172 C-0.46758752 30.43234252 -0.42112307 27.06000894 -0.375 23.6875 C-0.33680819 21.39777177 -0.29775576 19.10805772 -0.2578125 16.81835938 C-0.16189674 11.21236569 -0.07681089 5.60628624 0 0 Z " fill="#FEECFF" transform="translate(370,185)"/>
<path d="M0 0 C0.66 0 1.32 0 2 0 C1.125 4.75 1.125 4.75 0 7 C-0.20882914 9.58716103 -0.37461608 12.15873241 -0.5 14.75 C-0.73861163 19.57525744 -1.10184086 24.23975654 -2 29 C-2.33 29 -2.66 29 -3 29 C-3.08756305 25.29181703 -3.14058015 21.58390237 -3.1875 17.875 C-3.21263672 16.82828125 -3.23777344 15.7815625 -3.26367188 14.703125 C-3.31833491 8.94528536 -3.20676341 4.86485368 0 0 Z " fill="#9273D3" transform="translate(200,120)"/>
<path d="M0 0 C0.33 0 0.66 0 1 0 C1 13.86 1 27.72 1 42 C0.67 42 0.34 42 0 42 C-0.33 32.1 -0.66 22.2 -1 12 C-1.33 12 -1.66 12 -2 12 C-1.85831863 10.56208484 -1.71148957 9.1246763 -1.5625 7.6875 C-1.48128906 6.88699219 -1.40007812 6.08648437 -1.31640625 5.26171875 C-1 3 -1 3 0 0 Z " fill="#A37DBB" transform="translate(310,192)"/>
<path d="M0 0 C0.33 0 0.66 0 1 0 C1 3.96 1 7.92 1 12 C-0.32 12 -1.64 12 -3 12 C-3.33 12.99 -3.66 13.98 -4 15 C-5.24270671 12.51458657 -4.95365685 11.23584621 -4.625 8.5 C-4.53476562 7.7059375 -4.44453125 6.911875 -4.3515625 6.09375 C-4 4 -4 4 -3 2 C-2.34 2 -1.68 2 -1 2 C-0.67 1.34 -0.34 0.68 0 0 Z " fill="#AE6FDF" transform="translate(308,212)"/>
<path d="M0 0 C1.32 0.66 2.64 1.32 4 2 C2.68 3.32 1.36 4.64 0 6 C0 5.34 0 4.68 0 4 C-2.97 4 -5.94 4 -9 4 C-9.91840767 7.67363066 -10.49547781 11.25212088 -11 15 C-11.33 15 -11.66 15 -12 15 C-12 10.71 -12 6.42 -12 2 C-7.75195312 1.65820312 -7.75195312 1.65820312 -3.50390625 1.31640625 C-1.06359221 1.26788532 -1.06359221 1.26788532 0 0 Z " fill="#CB6EBD" transform="translate(385,184)"/>
<path d="M0 0 C9.9 0 19.8 0 30 0 C30.33 0.66 30.66 1.32 31 2 C30.67 2.66 30.34 3.32 30 4 C28.68 4 27.36 4 26 4 C26 3.34 26 2.68 26 2 C24.19015625 2.01740234 24.19015625 2.01740234 22.34375 2.03515625 C20.72916823 2.04454335 19.11458476 2.05364256 17.5 2.0625 C16.31277344 2.07506836 16.31277344 2.07506836 15.1015625 2.08789062 C9.97238283 2.10891185 5.07663894 1.73937287 0 1 C0 0.67 0 0.34 0 0 Z " fill="#DE6E9D" transform="translate(368,82)"/>
<path d="M0 0 C0.66 0.33 1.32 0.66 2 1 C1.06558465 2.27310312 0.12732889 3.543388 -0.8125 4.8125 C-1.59560547 5.87404297 -1.59560547 5.87404297 -2.39453125 6.95703125 C-4 9 -4 9 -5.65625 10.625 C-7.31191668 12.31917055 -7.6031328 13.69817024 -8 16 C-9.32 16.33 -10.64 16.66 -12 17 C-10.63629701 14.00779732 -9.05091917 11.70973471 -6.875 9.25 C-6.33617187 8.63640625 -5.79734375 8.0228125 -5.2421875 7.390625 C-4.62730469 6.70226562 -4.62730469 6.70226562 -4 6 C-4.66 5.34 -5.32 4.68 -6 4 C-3.94766315 1.7522025 -2.99332739 0.9977758 0 0 Z " fill="#A972E6" transform="translate(216,97)"/>
<path d="M0 0 C1.05904289 0.00212242 1.05904289 0.00212242 2.13948059 0.00428772 C4.39120751 0.00987861 6.64283446 0.02242937 8.89453125 0.03515625 C10.4225246 0.04017243 11.95051952 0.04473513 13.47851562 0.04882812 C17.2213926 0.05984505 20.96419498 0.07710338 24.70703125 0.09765625 C24.70703125 0.42765625 24.70703125 0.75765625 24.70703125 1.09765625 C23.803479 1.1227124 22.89992676 1.14776855 21.96899414 1.17358398 C18.62738845 1.26852942 15.28596873 1.36777246 11.94458008 1.4699707 C10.49638885 1.51337255 9.04814471 1.55504369 7.59985352 1.5949707 C5.52213566 1.65254687 3.44468552 1.71627653 1.3671875 1.78125 C0.11558838 1.81790771 -1.13601074 1.85456543 -2.42553711 1.89233398 C-5.18927379 1.77569531 -5.18927379 1.77569531 -6.29296875 3.09765625 C-8.62594308 3.13858562 -10.960021 3.14007348 -13.29296875 3.09765625 C-8.78147485 0.08999365 -5.24048453 -0.03951577 0 0 Z " fill="#A573B9" transform="translate(247.29296875,80.90234375)"/>
<path d="M0 0 C0.33 0 0.66 0 1 0 C1.66 8.58 2.32 17.16 3 26 C2.01 25.67 1.02 25.34 0 25 C0 16.75 0 8.5 0 0 Z " fill="#867AD8" transform="translate(197,256)"/>
<path d="M0 0 C9.9 0 19.8 0 30 0 C30 0.33 30 0.66 30 1 C29.09507812 1.09087891 29.09507812 1.09087891 28.171875 1.18359375 C26.97304688 1.30927734 26.97304688 1.30927734 25.75 1.4375 C24.96109375 1.51871094 24.1721875 1.59992188 23.359375 1.68359375 C21.0012079 1.94871809 21.0012079 1.94871809 18.765625 2.59765625 C18.18296875 2.73042969 17.6003125 2.86320312 17 3 C16.67 2.67 16.34 2.34 16 2 C12.40379558 1.96817518 8.81770385 2.06872574 5.22265625 2.16015625 C2 2 2 2 0 0 Z " fill="#C66BB9" transform="translate(290,82)"/>
<path d="M0 0 C0.33 0 0.66 0 1 0 C1 7.92 1 15.84 1 24 C3.31 24.66 5.62 25.32 8 26 C8 26.33 8 26.66 8 27 C2.50685537 27.36620964 2.50685537 27.36620964 0.32128906 25.78710938 C-1.39694655 23.46310999 -1.35988609 22.09039052 -1.328125 19.21875 C-1.32296875 18.29449219 -1.3178125 17.37023437 -1.3125 16.41796875 C-1.291875 15.45503906 -1.27125 14.49210938 -1.25 13.5 C-1.24484375 12.53707031 -1.2396875 11.57414063 -1.234375 10.58203125 C-1.15496483 3.46489448 -1.15496483 3.46489448 0 0 Z " fill="#9878E9" transform="translate(249,214)"/>
<path d="M0 0 C0.66 0 1.32 0 2 0 C5.24599784 4.15487723 5.56826373 7.90551202 6 13 C3 12 3 12 1.8125 9.9375 C1.544375 9.298125 1.27625 8.65875 1 8 C0.67 8 0.34 8 0 8 C0 5.36 0 2.72 0 0 Z " fill="#B55A7D" transform="translate(436,111)"/>
<path d="M0 0 C0.66 0 1.32 0 2 0 C2.33 0.99 2.66 1.98 3 3 C3.66 3.33 4.32 3.66 5 4 C5 9.28 5 14.56 5 20 C2.75465987 16.6319898 2.47437187 14.53715648 1.9375 10.5625 C1.20621677 5.23379874 1.20621677 5.23379874 0 0 Z " fill="#AE78D2" transform="translate(281,170)"/>
<path d="M0 0 C3.85025879 0.60355408 6.86101159 1.76772603 10.3125 3.5625 C11.19550781 4.01753906 12.07851563 4.47257812 12.98828125 4.94140625 C13.65214844 5.29074219 14.31601562 5.64007813 15 6 C15 6.66 15 7.32 15 8 C11.16526716 8.35671933 9.44657125 8.29771416 6.1875 6.125 C4 4 4 4 3 2 C2.01 1.34 1.02 0.68 0 0 Z " fill="#924764" transform="translate(406,84)"/>
<path d="M0 0 C0.66 0 1.32 0 2 0 C2.33 1.32 2.66 2.64 3 4 C8.28305817 5.69057861 13.67099269 5.29188056 19 4 C19 4.66 19 5.32 19 6 C16.30335792 7.34832104 14.13412479 7.16910682 11.125 7.1875 C10.07570313 7.20167969 9.02640625 7.21585938 7.9453125 7.23046875 C5.03387581 7.00265076 3.38704107 6.65299792 1 5 C0.25 2.375 0.25 2.375 0 0 Z " fill="#B47CC7" transform="translate(351,234)"/>
<path d="M0 0 C6.6 0.99 13.2 1.98 20 3 C20 3.33 20 3.66 20 4 C14.72 4 9.44 4 4 4 C4 3.34 4 2.68 4 2 C2.68 2 1.36 2 0 2 C0 1.34 0 0.68 0 0 Z " fill="#8B7DE9" transform="translate(238,322)"/>
<path d="M0 0 C4.37702633 1.22556737 8.69677317 2.53060547 13 4 C12.67 4.99 12.34 5.98 12 7 C5.85412262 6.7589852 5.85412262 6.7589852 3.421875 4.59765625 C2.21155069 3.11953029 1.09779097 1.56352047 0 0 Z " fill="#6F62C4" transform="translate(213,310)"/>
<path d="M0 0 C0 0.99 0 1.98 0 3 C-0.61875 3.2475 -1.2375 3.495 -1.875 3.75 C-4.14291141 4.81460222 -4.14291141 4.81460222 -4.9375 7 C-6.39836667 9.74986668 -8.11305462 10.08833304 -11 11 C-11.33 10.01 -11.66 9.02 -12 8 C-10.35 7.67 -8.7 7.34 -7 7 C-6.67 5.35 -6.34 3.7 -6 2 C-4.68 2 -3.36 2 -2 2 C-1.34 1.34 -0.68 0.68 0 0 Z " fill="#6C4183" transform="translate(430,306)"/>
<path d="M0 0 C-1.2065625 0.37125 -1.2065625 0.37125 -2.4375 0.75 C-3.283125 1.1625 -4.12875 1.575 -5 2 C-5.144375 2.639375 -5.28875 3.27875 -5.4375 3.9375 C-6 6 -6 6 -9.0625 7.75 C-10.5165625 8.36875 -10.5165625 8.36875 -12 9 C-11.38204889 5.9789057 -10.8418778 3.70294723 -8.4140625 1.67578125 C-3.62006208 -1.20668736 -3.62006208 -1.20668736 0 0 Z " fill="#734D97" transform="translate(234,85)"/>
<path d="M0 0 C1.65 0 3.3 0 5 0 C5.33 0.99 5.66 1.98 6 3 C7.32 3 8.64 3 10 3 C10 3.66 10 4.32 10 5 C6.05272412 5.17942163 3.4019487 5.09350689 0 3 C0 2.01 0 1.02 0 0 Z " fill="#564BA3" transform="translate(232,321)"/>
<path d="M0 0 C7.92 0 15.84 0 24 0 C24 0.33 24 0.66 24 1 C23.12263184 1.03758423 23.12263184 1.03758423 22.22753906 1.07592773 C19.56815529 1.19222962 16.90909597 1.31480067 14.25 1.4375 C12.86941406 1.49647461 12.86941406 1.49647461 11.4609375 1.55664062 C10.57148438 1.59853516 9.68203125 1.64042969 8.765625 1.68359375 C7.94868164 1.72025146 7.13173828 1.75690918 6.29003906 1.79467773 C4.0965577 1.99134275 2.11603587 2.40300594 0 3 C0 2.01 0 1.02 0 0 Z " fill="#C275AF" transform="translate(320,81)"/>
<path d="M0 0 C3.86306207 1.4652994 5.1428051 3.37002815 7 7 C7.69822617 8.65369357 8.37498605 10.31727014 9 12 C5.83884224 10.63016497 5.0072908 10.0109362 3 7 C3 6.01 3 5.02 3 4 C2.34 4 1.68 4 1 4 C0.67 2.68 0.34 1.36 0 0 Z " fill="#874160" transform="translate(427,97)"/>
<path d="M0 0 C0.66 0 1.32 0 2 0 C2 1.65 2 3.3 2 5 C1.34 5 0.68 5 0 5 C0 5.99 0 6.98 0 8 C-0.66 8 -1.32 8 -2 8 C-2.66 9.32 -3.32 10.64 -4 12 C-3.45660208 7.43545749 -2.20536179 4.0271824 0 0 Z " fill="#6C50A0" transform="translate(202,112)"/>
<path d="M0 0 C1.125 1.625 1.125 1.625 2 4 C1.125 7.25 1.125 7.25 0 10 C-1.65 10.33 -3.3 10.66 -5 11 C-4.360625 10.113125 -3.72125 9.22625 -3.0625 8.3125 C-1.19170243 5.30788572 -0.40576034 3.4489629 0 0 Z " fill="#C76EAE" transform="translate(391,175)"/>
<path d="M0 0 C1.60080151 4.00200378 0.29279692 7.04556236 -1 11 C-3.29633824 7.55549263 -3.54016485 5.06187717 -4 1 C-2.02 1.99 -2.02 1.99 0 3 C0 2.01 0 1.02 0 0 Z " fill="#A680C4" transform="translate(292,198)"/>
<path d="M0 0 C0 2.31 0 4.62 0 7 C-0.66 7 -1.32 7 -2 7 C-3.62514468 8.45833358 -3.62514468 8.45833358 -5 10 C-4.71872579 8.51882199 -4.42466268 7.04006751 -4.125 5.5625 C-3.96257812 4.73878906 -3.80015625 3.91507813 -3.6328125 3.06640625 C-3.42398437 2.38449219 -3.21515625 1.70257813 -3 1 C-1 0 -1 0 0 0 Z " fill="#B181D0" transform="translate(310,202)"/>
<path d="M0 0 C-2.27795022 2.27795022 -3.93787293 3.05219877 -7 4 C-9.3125 3.625 -9.3125 3.625 -11 3 C-8.21756596 -1.17365106 -4.53441502 -0.22300402 0 0 Z " fill="#523277" transform="translate(411,322)"/>
<path d="M0 0 C0.66 0.33 1.32 0.66 2 1 C0.515 3.475 0.515 3.475 -1 6 C-2.65 5.67 -4.3 5.34 -6 5 C-3.375 1.125 -3.375 1.125 0 0 Z " fill="#A579D5" transform="translate(216,97)"/>
<path d="M0 0 C4.875 2.75 4.875 2.75 6 5 C4.35 5.33 2.7 5.66 1 6 C1 5.34 1 4.68 1 4 C0.01 3.34 -0.98 2.68 -2 2 C-1.34 1.34 -0.68 0.68 0 0 Z " fill="#AE4F72" transform="translate(421,92)"/>
<path d="M0 0 C0.99 0.33 1.98 0.66 3 1 C1.68 3.31 0.36 5.62 -1 8 C-1.93065133 5.39417629 -2.14917407 4.35801776 -1.0625 1.75 C-0.711875 1.1725 -0.36125 0.595 0 0 Z " fill="#844E92" transform="translate(434,297)"/>
<path d="M0 0 C-0.99 1.485 -0.99 1.485 -2 3 C-4.64 2.67 -7.28 2.34 -10 2 C-10 1.67 -10 1.34 -10 1 C-8.71073008 0.63720544 -7.41846728 0.28503302 -6.125 -0.0625 C-5.40570313 -0.25972656 -4.68640625 -0.45695312 -3.9453125 -0.66015625 C-2 -1 -2 -1 0 0 Z " fill="#A86DCE" transform="translate(402,323)"/>
<path d="M0 0 C0.33 0.66 0.66 1.32 1 2 C1.66 2.33 2.32 2.66 3 3 C3.625 5.0625 3.625 5.0625 4 7 C2.68 6.67 1.36 6.34 0 6 C-1.125 2.25 -1.125 2.25 0 0 Z " fill="#8B7CEC" transform="translate(213,304)"/>
<path d="M0 0 C0.66 0.33 1.32 0.66 2 1 C2 2.65 2 4.3 2 6 C1.01 5.67 0.02 5.34 -1 5 C-1.6875 2.9375 -1.6875 2.9375 -2 1 C-1.34 0.67 -0.68 0.34 0 0 Z " fill="#BB84C4" transform="translate(331,173)"/>
<path d="M0 0 C-2.71182212 2.60334924 -3.89133813 2.99456691 -7.75 3.1875 C-8.8225 3.125625 -9.895 3.06375 -11 3 C-7.11595442 0.41063628 -4.5725325 -0.12358196 0 0 Z " fill="#45265C" transform="translate(245,81)"/>
</svg>
